<svg xmlns="http://www.w3.org/2000/svg" height="24" viewBox="0 -960 960 960" width="24" fill="currentColor"><path d="M480-80q-83 0-156-31.5T197-197q-54-54-85.5-127T80-480h80q0 116 75.5 207.5T440-163v-377h-80v-80h80v-58q-18-12-29-29t-11-43q0-33 23.5-56.5T480-840q33 0 56.5 23.5T560-760q0 26-11 43t-29 29v58h80v80h-80v377q129-18 204.5-109.5T800-480h80q0 83-31.5 156T763-197q-54 54-127 85.5T480-80Zm0-640q17 0 28.5-11.5T520-760q0-17-11.5-28.5T480-800q-17 0-28.5 11.5T440-760q0 17 11.5 28.5T480-720Z"/></svg>
