<svg xmlns="http://www.w3.org/2000/svg" height="24" viewBox="0 -960 960 960" width="24" fill="currentColor"><path d="M120-120v-680q0-33 23.5-56.5T200-880h320q33 0 56.5 23.5T600-800v360h60q33 0 56.5 23.5T740-360v200q0 17 11.5 28.5T780-120q17 0 28.5-11.5T820-160v-360h-40q-17 0-28.5-11.5T740-560v-120l-30-30q-6-6-8-13t-2-15q0-8 2-15t8-13l18-18q6-6 13.5-9t15.5-3q8 0 15.5 3t13.5 9l112 112q6 6 9 13.5t3 15.5v453q0 50-35 85t-85 35q-50 0-85-35t-35-85v-200h-60v320H120Zm80-440h320v-240H200v240Zm0 360h320v-280H200v280Zm0 0v-280 280Z"/></svg>
